<svg xmlns="http://www.w3.org/2000/svg" viewBox="0 0 360 640" role="img" aria-label="PC back">
  <defs>
    <linearGradient id="pcbBody" x1="0" y1="0" x2="1" y2="0">
      <stop offset="0%" stop-color="#2c3036"/>
      <stop offset="55%" stop-color="#4b5159"/>
      <stop offset="100%" stop-color="#3a3f46"/>
    </linearGradient>
  </defs>
  <rect x="28" y="18" width="304" height="604" rx="14" fill="url(#pcbBody)" stroke="#1c2024" stroke-width="3"/>
  <rect x="48" y="40" width="264" height="110" rx="4" fill="#1f2429" stroke="#111417"/>
  <rect x="64" y="56" width="88" height="78" rx="3" fill="#2f343b"/>
  <circle cx="86" cy="78" r="8" fill="#111417"/>
  <circle cx="114" cy="78" r="8" fill="#111417"/>
  <rect x="72" y="96" width="72" height="22" rx="2" fill="#111417"/>
  <rect x="168" y="56" width="128" height="78" rx="3" fill="#353b43"/>
  <rect x="180" y="68" width="28" height="18" rx="2" fill="#111417"/>
  <rect x="216" y="68" width="28" height="18" rx="2" fill="#111417"/>
  <rect x="252" y="68" width="28" height="18" rx="2" fill="#111417"/>
  <rect x="180" y="96" width="44" height="22" rx="2" fill="#111417"/>
  <rect x="232" y="96" width="44" height="22" rx="2" fill="#111417"/>
  <rect x="48" y="168" width="264" height="168" rx="4" fill="#252a30" stroke="#111417"/>
  <text x="60" y="192" fill="#c5ccd4" font-family="Segoe UI, Helvetica, Arial, sans-serif" font-size="16">I/O</text>
  <rect x="60" y="206" width="52" height="22" rx="2" fill="#111417"/>
  <rect x="120" y="206" width="52" height="22" rx="2" fill="#111417"/>
  <rect x="180" y="206" width="52" height="22" rx="2" fill="#111417"/>
  <circle cx="80" cy="258" r="8" fill="#22c55e"/>
  <circle cx="104" cy="258" r="8" fill="#3b82f6"/>
  <circle cx="128" cy="258" r="8" fill="#f59e0b"/>
  <rect id="nic-slot" x="168" y="240" width="120" height="72" rx="4" fill="#1a1e22" stroke="#6a717a" stroke-width="2"/>
  <rect x="48" y="360" width="264" height="220" rx="4" fill="#2a2f35"/>
  <rect x="68" y="380" width="224" height="18" rx="2" fill="#1a1e22"/>
  <rect x="68" y="410" width="224" height="18" rx="2" fill="#1a1e22"/>
  <rect x="68" y="440" width="224" height="18" rx="2" fill="#1a1e22"/>
  <rect x="68" y="470" width="224" height="18" rx="2" fill="#1a1e22"/>
  <rect x="68" y="500" width="224" height="18" rx="2" fill="#1a1e22"/>
  <rect x="68" y="530" width="224" height="18" rx="2" fill="#1a1e22"/>
</svg>
