<svg xmlns="http://www.w3.org/2000/svg" viewBox="0 0 360 640" role="img" aria-label="PC front">
  <defs>
    <linearGradient id="pcfBody" x1="0" y1="0" x2="1" y2="0">
      <stop offset="0%" stop-color="#3a3f46"/>
      <stop offset="45%" stop-color="#585e66"/>
      <stop offset="100%" stop-color="#2c3036"/>
    </linearGradient>
    <pattern id="pcfVent" width="10" height="6" patternUnits="userSpaceOnUse">
      <rect x="1" y="2" width="8" height="2" rx="0.6" fill="#1f2429"/>
    </pattern>
  </defs>
  <rect x="28" y="18" width="304" height="604" rx="14" fill="url(#pcfBody)" stroke="#1c2024" stroke-width="3"/>
  <rect x="48" y="40" width="264" height="86" rx="6" fill="#2a2f35" stroke="#1a1e22"/>
  <rect x="62" y="54" width="236" height="18" rx="2" fill="#454b54"/>
  <rect x="62" y="82" width="236" height="18" rx="2" fill="#454b54"/>
  <rect x="48" y="146" width="264" height="250" rx="6" fill="#32383f"/>
  <rect x="62" y="162" width="236" height="218" fill="url(#pcfVent)"/>
  <circle cx="180" cy="430" r="28" fill="#1e2328" stroke="#8a9098" stroke-width="3"/>
  <circle cx="180" cy="430" r="10" fill="#d8dce3"/>
  <rect x="64" y="478" width="36" height="16" rx="2" fill="#1a1e22" stroke="#6a717a"/>
  <rect x="108" y="478" width="36" height="16" rx="2" fill="#1a1e22" stroke="#6a717a"/>
  <circle cx="168" cy="486" r="6" fill="#22c55e"/>
  <circle cx="188" cy="486" r="6" fill="#ef4444"/>
  <rect x="48" y="520" width="264" height="78" rx="6" fill="#2a2f35"/>
  <rect x="64" y="536" width="232" height="46" fill="url(#pcfVent)"/>
</svg>
